<svg xmlns="http://www.w3.org/2000/svg" viewBox="0 0 244.97 205.3"><defs><style>.cls-1{fill:#5b675a;}.cls-2{fill:#fff;stroke:#231f20;stroke-miterlimit:10;}.cls-3{fill:#464847;}</style></defs><title>northern-logo</title><g id="Layer_4" data-name="Layer 4"><polygon class="cls-1" points="125.86 52.98 97.94 86.9 115.09 74.92 121.87 82.09 127.45 69.94 140.61 75.31 125.86 52.98"/><polygon class="cls-1" points="68.85 93.69 80.53 87.25 83.24 91.56 85.16 87.25 90.55 87.9 79.78 80.89 68.85 93.69"/><polygon class="cls-2" points="95.94 87.9 113.09 75.92 119.87 83.09 125.45 70.94 138.61 76.31 123.86 53.98 95.94 87.9"/><polygon class="cls-1" points="181.92 105.47 173.52 113.17 165.94 119.41 179.11 114.09 184.55 119.41 184.55 114.57 195.57 119.41 181.92 105.47"/><path class="cls-1" d="M121.22,38.48a59.9,59.9,0,0,0-46.81,97.27l3.78-4.27a54.3,54.3,0,1,1,94-14.45l3.88,5.39a59.91,59.91,0,0,0-54.88-83.94Z" transform="translate(-20.13 -38.48)"/><path class="cls-1" d="M152.75,169.13s-16.75-13.24,2.72-13.21c14.3,0,27.1-6.64,32.91-10.2L174.59,125.6l-3.66-5.33L145.18,82.7l-33.9,39.1-12-9.3L80.13,133.88l-3.77,4.2L63.29,152.65a85.28,85.28,0,0,0,51.34,58.69C132.56,198.55,163,175.05,152.75,169.13Z" transform="translate(-20.13 -38.48)"/><path class="cls-1" d="M201.41,135.34l-9.73,8.21c-6.63,7-30.31,16.1-37.2,15.65-3.86-.24-4.55,3.18,6.45,8,9.74,4.26,6.81,31,3.86,48a85.22,85.22,0,0,0,61.89-56.12Z" transform="translate(-20.13 -38.48)"/><path class="cls-3" d="M31.85,228.17v15.61H30.26l-7-10.61-1.6-2.71.12,3.37v9.95h-1.6V228.17h1.61L28.92,239l1.46,2.53-.12-3.19V228.17Z" transform="translate(-20.13 -38.48)"/><path class="cls-3" d="M40.23,231.78a6.47,6.47,0,0,1,2.59-2.71,7.49,7.49,0,0,1,3.7-.91,6.47,6.47,0,0,1,3.48.93,6.17,6.17,0,0,1,2.31,2.65,9,9,0,0,1,.82,4,9.73,9.73,0,0,1-.92,4.4,6.35,6.35,0,0,1-2.53,2.76,7.3,7.3,0,0,1-3.71.93,6.24,6.24,0,0,1-5.87-3.71,10.29,10.29,0,0,1,.13-8.3Zm10.58.83a5.16,5.16,0,0,0-1.7-2.29,4.34,4.34,0,0,0-2.69-.84,5.22,5.22,0,0,0-2.75.74,5.1,5.1,0,0,0-1.92,2.23,8.33,8.33,0,0,0-.71,3.61,8.55,8.55,0,0,0,.59,3.22,5.34,5.34,0,0,0,1.76,2.31,4.49,4.49,0,0,0,2.78.86,4.87,4.87,0,0,0,2.73-.76,5,5,0,0,0,1.82-2.26,8.9,8.9,0,0,0,.66-3.6A8.75,8.75,0,0,0,50.81,232.61Z" transform="translate(-20.13 -38.48)"/><path class="cls-3" d="M71.74,243.78h-2a1.89,1.89,0,0,1-.21-.33c-.07-.13-.15-.29-.23-.47l-.07-.14a1.17,1.17,0,0,0-.05-.11c-.17-.36-.36-.78-.56-1.27-.37-.86-.69-1.57-1-2.13a8,8,0,0,0-1-1.51,2.39,2.39,0,0,0-1.21-.84H62.31v6.8H60.58V228.17H65.3c3.56,0,5.35,1.41,5.35,4.23a4.45,4.45,0,0,1-.84,2.79,4.31,4.31,0,0,1-2.33,1.51,3.58,3.58,0,0,1,1,1,10.12,10.12,0,0,1,.88,1.41c.26.51.57,1.14.93,1.92s.61,1.31.85,1.74S71.61,243.58,71.74,243.78Zm-6.52-8a4,4,0,0,0,2.67-.84,3.12,3.12,0,0,0,1-2.48,3.36,3.36,0,0,0-.4-1.77,2.31,2.31,0,0,0-1.25-1,6.46,6.46,0,0,0-2.2-.31H63.51a3.9,3.9,0,0,0-1.2.15v6.18C62.72,235.78,63.69,235.8,65.22,235.8Z" transform="translate(-20.13 -38.48)"/><path class="cls-3" d="M77.24,229.51v-1.34H89.13v1.34H84v14.27H82.27V229.51Z" transform="translate(-20.13 -38.48)"/><path class="cls-3" d="M97.76,228.17v7h8.12v-7h1.74v15.61h-1.74V236.5H97.76v7.28H96V228.17Z" transform="translate(-20.13 -38.48)"/><path class="cls-3" d="M124.84,228.17v1.34h-7.07V235h5.16v1.34h-5.16v6h7.82v1.37H116V228.17Z" transform="translate(-20.13 -38.48)"/><path class="cls-3" d="M143.73,243.78h-2a2.84,2.84,0,0,1-.2-.33l-.24-.47-.06-.14,0-.11c-.17-.36-.36-.78-.56-1.27-.37-.86-.7-1.57-1-2.13a8,8,0,0,0-1-1.51,2.33,2.33,0,0,0-1.2-.84h-3.18v6.8h-1.73V228.17h4.71q5.36,0,5.36,4.23a4.4,4.4,0,0,1-.85,2.79,4.29,4.29,0,0,1-2.32,1.51,3.58,3.58,0,0,1,1,1,11.1,11.1,0,0,1,.87,1.41c.26.51.57,1.14.94,1.92s.61,1.31.85,1.74S143.6,243.58,143.73,243.78Zm-6.51-8a4,4,0,0,0,2.67-.84,3.15,3.15,0,0,0,1-2.48,3.36,3.36,0,0,0-.4-1.77,2.31,2.31,0,0,0-1.25-1,6.46,6.46,0,0,0-2.2-.31h-1.51a3.9,3.9,0,0,0-1.2.15v6.18C134.71,235.78,135.68,235.8,137.22,235.8Z" transform="translate(-20.13 -38.48)"/><path class="cls-3" d="M162.42,228.17v15.61h-1.59l-7-10.61-1.6-2.71.11,3.37v9.95h-1.6V228.17h1.61L159.5,239l1.46,2.53-.13-3.19V228.17Z" transform="translate(-20.13 -38.48)"/><path class="cls-3" d="M183.52,228.17v14.24H190v1.37h-8.21V228.17Z" transform="translate(-20.13 -38.48)"/><path class="cls-3" d="M196.86,231.78a6.35,6.35,0,0,1,2.59-2.71,7.42,7.42,0,0,1,3.69-.91,6.44,6.44,0,0,1,3.48.93,6.25,6.25,0,0,1,2.32,2.65,9.15,9.15,0,0,1,.81,4,9.6,9.6,0,0,1-.92,4.4,6.35,6.35,0,0,1-2.53,2.76,7.3,7.3,0,0,1-3.71.93,6.24,6.24,0,0,1-5.87-3.71,9.23,9.23,0,0,1-.81-4A9.13,9.13,0,0,1,196.86,231.78Zm10.57.83a5.14,5.14,0,0,0-1.69-2.29,4.39,4.39,0,0,0-2.7-.84,5.22,5.22,0,0,0-2.75.74,5.1,5.1,0,0,0-1.92,2.23,9.24,9.24,0,0,0-.11,6.83,5.24,5.24,0,0,0,1.75,2.31,4.49,4.49,0,0,0,2.78.86,4.87,4.87,0,0,0,2.73-.76,5.08,5.08,0,0,0,1.83-2.26,9.08,9.08,0,0,0,.65-3.6A8.75,8.75,0,0,0,207.43,232.61Z" transform="translate(-20.13 -38.48)"/><path class="cls-3" d="M218.43,228.17h3.47a8.86,8.86,0,0,1,4.1.86,5.65,5.65,0,0,1,2.47,2.51,8.67,8.67,0,0,1,.81,4,10,10,0,0,1-.88,4.35,6.53,6.53,0,0,1-2.56,2.88,7.64,7.64,0,0,1-4,1H217.2V228.17Zm6.42,13.61a4.85,4.85,0,0,0,1.94-2.27,9.29,9.29,0,0,0,.69-3.82c0-2.2-.5-3.8-1.48-4.81a6,6,0,0,0-4.51-1.52,17.58,17.58,0,0,0-2.56.2v12.83a6.75,6.75,0,0,0,1.46.13h1.52A5.58,5.58,0,0,0,224.85,241.78Z" transform="translate(-20.13 -38.48)"/><path class="cls-3" d="M248,235.93v6.76a1.53,1.53,0,0,0-.41.07L247,243a14.33,14.33,0,0,1-1.91.58,10.52,10.52,0,0,1-2.36.23,7.13,7.13,0,0,1-3.8-1,6.5,6.5,0,0,1-2.46-2.75,9,9,0,0,1-.85-4,9.13,9.13,0,0,1,.95-4.32,6.5,6.5,0,0,1,2.59-2.7,7.52,7.52,0,0,1,3.69-.9,12,12,0,0,1,1.86.11,15.66,15.66,0,0,1,1.57.32c.3.07.59.14.88.19l-.07,1.53a8.94,8.94,0,0,0-1.83-.57,12.06,12.06,0,0,0-2.51-.22,5.12,5.12,0,0,0-2.7.74,5.17,5.17,0,0,0-1.92,2.17,7.78,7.78,0,0,0-.7,3.45,8.71,8.71,0,0,0,.62,3.41,5.18,5.18,0,0,0,1.81,2.33,4.86,4.86,0,0,0,2.84.83,10.52,10.52,0,0,0,2.15-.21,6.57,6.57,0,0,0,1.52-.47v-4.54h-3.24v-1.3Z" transform="translate(-20.13 -38.48)"/><path class="cls-3" d="M264.35,228.17v1.34h-7.06V235h5.15v1.34h-5.15v6h7.81v1.37h-9.55V228.17Z" transform="translate(-20.13 -38.48)"/></g></svg>